<svg width="25" height="24" viewBox="0 0 25 24" fill="none" xmlns="http://www.w3.org/2000/svg">
<path d="M1.29248 7L1.29248 3L23.2925 3V21H15.2925" stroke="#14142B" stroke-width="2"/>
<path d="M1.10479 11.6569C2.28668 11.6569 3.45701 11.8897 4.54894 12.342C5.64087 12.7943 6.63302 13.4572 7.46875 14.293C8.30448 15.1287 8.96741 16.1208 9.4197 17.2128C9.872 18.3047 10.1048 19.475 10.1048 20.6569" stroke="#14142B" stroke-width="2"/>
<path d="M1.10557 16.173C1.6597 16.173 2.20841 16.2821 2.72037 16.4942C3.23232 16.7063 3.6975 17.0171 4.08933 17.4089C4.48117 17.8007 4.79199 18.2659 5.00405 18.7779C5.2161 19.2898 5.32525 19.8385 5.32525 20.3927" stroke="#14142B" stroke-width="2"/>
<circle cx="1.12109" cy="20.4687" r="0.5" transform="rotate(45 1.12109 20.4687)" stroke="#14142B"/>
</svg>
