<svg width="24" height="24" viewBox="0 0 24 24" fill="none" xmlns="http://www.w3.org/2000/svg">
<path d="M20.2718 15.8159C19.6608 17.3283 18.689 18.6683 17.4412 19.719C16.1935 20.7697 14.7076 21.4993 13.1132 21.844C11.5189 22.1887 9.86436 22.1382 8.29399 21.6967C6.72363 21.2553 5.28509 20.4365 4.1038 19.3115C2.92252 18.1866 2.03436 16.7898 1.51676 15.2429C0.999169 13.6959 0.867857 12.0459 1.13428 10.4366C1.4007 8.82724 2.05676 7.30753 3.04527 6.00994C4.03377 4.71234 5.3247 3.67627 6.80548 2.99205" stroke="#14142B" stroke-width="2"/>
<path d="M12 1.06982C13.3132 1.06982 14.6136 1.32848 15.8268 1.83103C17.0401 2.33358 18.1425 3.07017 19.0711 3.99876C19.9997 4.92734 20.7362 6.02974 21.2388 7.24299C21.7413 8.45625 22 9.75661 22 11.0698L12 11.0698L12 1.06982Z" stroke="#14142B" stroke-width="2"/>
</svg>
