<svg width="24" height="25" viewBox="0 0 24 25" fill="none" xmlns="http://www.w3.org/2000/svg">
<g clip-path="url(#clip0_365_9195)">
<path d="M10.1899 11.9607C9.61992 11.9607 9.16992 12.4357 9.16992 13.0152C9.16992 13.5947 9.62992 14.0697 10.1899 14.0697C10.7599 14.0697 11.2099 13.5947 11.2099 13.0152C11.2199 12.4357 10.7599 11.9607 10.1899 11.9607ZM13.8399 11.9607C13.2699 11.9607 12.8199 12.4357 12.8199 13.0152C12.8199 13.5947 13.2799 14.0697 13.8399 14.0697C14.4099 14.0697 14.8599 13.5947 14.8599 13.0152C14.8599 12.4357 14.4099 11.9607 13.8399 11.9607Z" fill="#333333"/>
<path d="M18.7 3.99023H5.3C4.17 3.99023 3.25 4.86423 3.25 5.94723V18.7912C3.25 19.8742 4.17 20.7482 5.3 20.7482H16.64L16.11 18.9907L17.39 20.1212L18.6 21.1852L20.75 22.9902V5.94723C20.75 4.86423 19.83 3.99023 18.7 3.99023ZM14.84 16.3972C14.84 16.3972 14.48 15.9887 14.18 15.6277C15.49 15.2762 15.99 14.4972 15.99 14.4972C15.58 14.7537 15.19 14.9342 14.84 15.0577C14.34 15.2572 13.86 15.3902 13.39 15.4662C12.5336 15.616 11.6552 15.6128 10.8 15.4567C10.2979 15.3634 9.80587 15.2267 9.33 15.0482C9.07916 14.9566 8.83525 14.8487 8.6 14.7252C8.57 14.7062 8.54 14.6967 8.51 14.6777C8.49 14.6682 8.48 14.6587 8.47 14.6492C8.29 14.5542 8.19 14.4877 8.19 14.4877C8.19 14.4877 8.67 15.2477 9.94 15.6087C9.64 15.9697 9.27 16.3972 9.27 16.3972C7.06 16.3307 6.22 14.9532 6.22 14.9532C6.22 11.8942 7.66 9.41473 7.66 9.41473C9.1 8.38873 10.47 8.41723 10.47 8.41723L10.57 8.53123C8.77 9.02523 7.94 9.77573 7.94 9.77573C7.94 9.77573 8.16 9.66173 8.53 9.50023C9.6 9.05373 10.45 8.93023 10.8 8.90173C10.86 8.89223 10.91 8.88273 10.97 8.88273C12.7041 8.65976 14.4677 8.97286 16 9.77573C16 9.77573 15.21 9.06323 13.51 8.56923L13.65 8.41723C13.65 8.41723 15.02 8.38873 16.46 9.41473C16.46 9.41473 17.9 11.8942 17.9 14.9532C17.9 14.9532 17.05 16.3307 14.84 16.3972V16.3972Z" fill="#333333"/>
</g>
<defs>
<clipPath id="clip0_365_9195">
<rect width="20" height="19" fill="white" transform="translate(2 3.99023)"/>
</clipPath>
</defs>
</svg>
