<svg width="24" height="24" viewBox="0 0 24 24" fill="none" xmlns="http://www.w3.org/2000/svg">
<path d="M5.67969 3L21.6797 19" stroke="#14142B" stroke-width="2"/>
<path fill-rule="evenodd" clip-rule="evenodd" d="M21.1573 11.7984C19.5394 8.9804 17.2514 6.95071 14.674 6.06187L15.326 4.17114C18.4478 5.24774 21.0835 7.65291 22.8918 10.8026C23.3668 11.6299 23.4799 12.6016 23.2316 13.4975L21.3042 12.9632C21.4117 12.5758 21.3626 12.1559 21.1573 11.7984ZM8.20014 6.24408C5.82167 7.2102 3.71737 9.15941 2.2022 11.7985C1.9326 12.268 1.9326 12.8451 2.2022 13.3146C4.42466 17.1856 7.89339 19.5565 11.6798 19.5565C14.367 19.5565 16.8801 18.369 18.9146 16.2991L20.341 17.7011C17.9956 20.0872 14.9897 21.5565 11.6798 21.5565C6.99415 21.5565 2.94527 18.6256 0.467746 14.3105C-0.155911 13.2242 -0.155916 11.8889 0.467735 10.8027C2.16221 7.8513 4.58162 5.55521 7.44748 4.39111L8.20014 6.24408Z" fill="#14142B"/>
<path d="M14.5892 11.8251C14.748 12.457 14.6968 13.1233 14.4434 13.7235C14.1899 14.3236 13.748 14.825 13.1844 15.1517C12.6208 15.4785 11.9662 15.6129 11.3194 15.5347C10.6726 15.4564 10.0689 15.1698 9.59949 14.7181C9.13007 14.2663 8.82045 13.6741 8.71743 13.0308C8.61441 12.3875 8.7236 11.7282 9.02848 11.1524C9.33337 10.5767 9.81738 10.1159 10.4074 9.83956C10.9973 9.56327 11.6612 9.48653 12.2987 9.62095" stroke="#14142B" stroke-width="2"/>
</svg>
