<svg width="24" height="25" viewBox="0 0 24 25" fill="none" xmlns="http://www.w3.org/2000/svg">
<path fill-rule="evenodd" clip-rule="evenodd" d="M8.14123 3.1963C9.13935 3.15035 9.45758 3.14014 12.0001 3.14014C14.5426 3.14014 14.8608 3.1512 15.8581 3.1963C16.8553 3.24139 17.5361 3.40051 18.1317 3.63111C18.7554 3.86681 19.3213 4.23525 19.7893 4.71176C20.2658 5.1789 20.6334 5.7439 20.8682 6.36847C21.0997 6.9641 21.2579 7.64483 21.3039 8.64038C21.3498 9.6402 21.36 9.95843 21.36 12.5001C21.36 15.0426 21.349 15.3608 21.3039 16.3589C21.2588 17.3545 21.0997 18.0352 20.8682 18.6309C20.6334 19.2555 20.2652 19.8214 19.7893 20.2893C19.3213 20.7658 18.7554 21.1334 18.1317 21.3682C17.5361 21.5997 16.8553 21.7579 15.8598 21.8039C14.8608 21.8498 14.5426 21.86 12.0001 21.86C9.45758 21.86 9.13935 21.849 8.14123 21.8039C7.14568 21.7588 6.46495 21.5997 5.86932 21.3682C5.24469 21.1333 4.67875 20.7651 4.21091 20.2893C3.73472 19.8218 3.36623 19.2562 3.13111 18.6317C2.90051 18.0361 2.74225 17.3553 2.6963 16.3598C2.65035 15.36 2.64014 15.0417 2.64014 12.5001C2.64014 9.95758 2.6512 9.63935 2.6963 8.64209C2.74139 7.64482 2.90051 6.9641 3.13111 6.36847C3.36657 5.74397 3.73535 5.17832 4.21176 4.71091C4.67894 4.23483 5.24431 3.86634 5.86847 3.63111C6.4641 3.40051 7.14483 3.24225 8.14038 3.1963H8.14123ZM15.7824 4.88109C14.7953 4.83599 14.4992 4.82663 12.0001 4.82663C9.50098 4.82663 9.20486 4.83599 8.21782 4.88109C7.30479 4.92278 6.80957 5.07509 6.47942 5.20358C6.0429 5.37376 5.73062 5.57543 5.40302 5.90302C5.09248 6.20514 4.85349 6.57293 4.70358 6.97942C4.57509 7.30957 4.42278 7.80479 4.38109 8.71782C4.33599 9.70486 4.32663 10.001 4.32663 12.5001C4.32663 14.9992 4.33599 15.2953 4.38109 16.2824C4.42278 17.1954 4.57509 17.6906 4.70358 18.0208C4.85334 18.4266 5.09244 18.7951 5.40302 19.0971C5.70509 19.4077 6.07354 19.6468 6.47942 19.7966C6.80957 19.9251 7.30479 20.0774 8.21782 20.1191C9.20486 20.1642 9.50013 20.1735 12.0001 20.1735C14.5 20.1735 14.7953 20.1642 15.7824 20.1191C16.6954 20.0774 17.1906 19.9251 17.5208 19.7966C17.9573 19.6264 18.2696 19.4247 18.5971 19.0971C18.9077 18.7951 19.1468 18.4266 19.2966 18.0208C19.4251 17.6906 19.5774 17.1954 19.6191 16.2824C19.6642 15.2953 19.6735 14.9992 19.6735 12.5001C19.6735 10.001 19.6642 9.70486 19.6191 8.71782C19.5774 7.80479 19.4251 7.30957 19.2966 6.97942C19.1264 6.5429 18.9247 6.23062 18.5971 5.90302C18.295 5.5925 17.9272 5.35352 17.5208 5.20358C17.1906 5.07509 16.6954 4.92278 15.7824 4.88109V4.88109ZM10.8046 15.3855C11.4722 15.6634 12.2157 15.7009 12.9079 15.4916C13.6002 15.2823 14.1983 14.8392 14.6001 14.2378C15.0019 13.6365 15.1825 12.9144 15.111 12.1947C15.0395 11.475 14.7204 10.8025 14.2082 10.292C13.8816 9.96565 13.4868 9.71577 13.0521 9.56034C12.6174 9.40491 12.1536 9.34779 11.6942 9.39311C11.2347 9.43842 10.7911 9.58504 10.3951 9.8224C9.99915 10.0598 9.66073 10.382 9.40423 10.7658C9.14774 11.1497 8.97954 11.5856 8.91174 12.0423C8.84395 12.4989 8.87825 12.9649 9.01217 13.4067C9.14609 13.8485 9.37631 14.2552 9.68624 14.5973C9.99617 14.9395 10.3781 15.2087 10.8046 15.3855ZM8.59817 9.09817C9.04492 8.65142 9.57528 8.29705 10.159 8.05527C10.7427 7.81349 11.3683 7.68905 12.0001 7.68905C12.6319 7.68905 13.2575 7.81349 13.8412 8.05527C14.4249 8.29705 14.9553 8.65142 15.402 9.09817C15.8487 9.54492 16.2031 10.0753 16.4449 10.659C16.6867 11.2427 16.8111 11.8683 16.8111 12.5001C16.8111 13.1319 16.6867 13.7575 16.4449 14.3412C16.2031 14.9249 15.8487 15.4553 15.402 15.902C14.4998 16.8042 13.2761 17.3111 12.0001 17.3111C10.7241 17.3111 9.50041 16.8042 8.59817 15.902C7.69593 14.9998 7.18905 13.7761 7.18905 12.5001C7.18905 11.2241 7.69593 10.0004 8.59817 9.09817V9.09817ZM17.8781 8.40553C17.9888 8.3011 18.0775 8.17552 18.1388 8.03622C18.2001 7.89692 18.2328 7.74674 18.235 7.59456C18.2372 7.44239 18.2089 7.29131 18.1517 7.15029C18.0945 7.00926 18.0095 6.88115 17.9019 6.77353C17.7943 6.66592 17.6662 6.58099 17.5252 6.52377C17.3841 6.46656 17.2331 6.43822 17.0809 6.44044C16.9287 6.44266 16.7785 6.47539 16.6392 6.53669C16.4999 6.59799 16.3744 6.68662 16.2699 6.79732C16.0668 7.01263 15.9556 7.29861 15.9599 7.59456C15.9643 7.89051 16.0837 8.17313 16.293 8.38243C16.5023 8.59172 16.7849 8.7112 17.0809 8.71552C17.3768 8.71983 17.6628 8.60864 17.8781 8.40553V8.40553Z" fill="#333333"/>
</svg>
