<svg width="1681" height="921" viewBox="0 0 1681 921" fill="none" xmlns="http://www.w3.org/2000/svg">
<g opacity="0.5">
<rect x="421.098" y="0.5" width="140.474" height="131.721" stroke="#D9DBE9"/>
<rect x="560.964" y="0.5" width="140.474" height="131.721" stroke="#D9DBE9"/>
<rect x="700.831" y="0.5" width="140.474" height="131.721" stroke="#D9DBE9"/>
<rect x="840.696" y="0.5" width="140.474" height="131.721" stroke="#D9DBE9"/>
<rect x="980.563" y="0.5" width="140.474" height="131.721" stroke="#D9DBE9"/>
<rect x="1120.43" y="0.5" width="140.474" height="131.721" stroke="#D9DBE9"/>
<rect x="1260.29" y="0.5" width="140.474" height="131.721" stroke="#D9DBE9"/>
<rect x="1400.16" y="0.5" width="140.474" height="131.721" stroke="#D9DBE9"/>
<rect x="1540.03" y="0.5" width="140.474" height="131.721" stroke="#D9DBE9"/>
<rect x="281.232" y="0.5" width="140.474" height="131.721" stroke="#D9DBE9"/>
<rect x="141.366" y="0.5" width="140.474" height="131.721" stroke="#D9DBE9"/>
<path d="M9 0.5H141.974V132.221H1.5V8.00001C1.5 3.85787 4.85787 0.5 9 0.5Z" stroke="#D9DBE9"/>
<rect x="421.098" y="131.713" width="140.474" height="131.721" stroke="#D9DBE9"/>
<rect x="560.964" y="131.713" width="140.474" height="131.721" stroke="#D9DBE9"/>
<rect x="700.831" y="131.713" width="140.474" height="131.721" stroke="#D9DBE9"/>
<rect x="840.696" y="131.713" width="140.474" height="131.721" stroke="#D9DBE9"/>
<rect x="980.563" y="131.713" width="140.474" height="131.721" stroke="#D9DBE9"/>
<rect x="1120.43" y="131.713" width="140.474" height="131.721" stroke="#D9DBE9"/>
<rect x="1260.29" y="131.713" width="140.474" height="131.721" stroke="#D9DBE9"/>
<rect x="1400.16" y="131.713" width="140.474" height="131.721" stroke="#D9DBE9"/>
<rect x="1540.03" y="131.713" width="140.474" height="131.721" stroke="#D9DBE9"/>
<rect x="281.232" y="131.713" width="140.474" height="131.721" stroke="#D9DBE9"/>
<rect x="141.366" y="131.713" width="140.474" height="131.721" stroke="#D9DBE9"/>
<rect x="1.5" y="131.713" width="140.474" height="131.721" stroke="#D9DBE9"/>
<rect x="421.098" y="262.926" width="140.474" height="131.721" stroke="#D9DBE9"/>
<rect x="560.964" y="262.926" width="140.474" height="131.721" stroke="#D9DBE9"/>
<rect x="700.831" y="262.926" width="140.474" height="131.721" stroke="#D9DBE9"/>
<rect x="840.696" y="262.926" width="140.474" height="131.721" stroke="#D9DBE9"/>
<rect x="980.563" y="262.926" width="140.474" height="131.721" stroke="#D9DBE9"/>
<rect x="1120.43" y="262.926" width="140.474" height="131.721" stroke="#D9DBE9"/>
<rect x="1260.29" y="262.926" width="140.474" height="131.721" stroke="#D9DBE9"/>
<rect x="1400.16" y="262.926" width="140.474" height="131.721" stroke="#D9DBE9"/>
<rect x="1540.03" y="262.926" width="140.474" height="131.721" stroke="#D9DBE9"/>
<rect x="281.232" y="262.926" width="140.474" height="131.721" stroke="#D9DBE9"/>
<rect x="141.366" y="262.926" width="140.474" height="131.721" stroke="#D9DBE9"/>
<rect x="1.5" y="262.926" width="140.474" height="131.721" stroke="#D9DBE9"/>
<rect x="421.098" y="394.139" width="140.474" height="131.721" stroke="#D9DBE9"/>
<rect x="560.964" y="394.139" width="140.474" height="131.721" stroke="#D9DBE9"/>
<rect x="700.831" y="394.139" width="140.474" height="131.721" stroke="#D9DBE9"/>
<rect x="840.696" y="394.139" width="140.474" height="131.721" stroke="#D9DBE9"/>
<rect x="980.563" y="394.139" width="140.474" height="131.721" stroke="#D9DBE9"/>
<rect x="1120.43" y="394.139" width="140.474" height="131.721" stroke="#D9DBE9"/>
<rect x="1260.29" y="394.139" width="140.474" height="131.721" stroke="#D9DBE9"/>
<rect x="1400.16" y="394.139" width="140.474" height="131.721" stroke="#D9DBE9"/>
<rect x="1540.03" y="394.139" width="140.474" height="131.721" stroke="#D9DBE9"/>
<rect x="281.232" y="394.139" width="140.474" height="131.721" stroke="#D9DBE9"/>
<rect x="141.366" y="394.139" width="140.474" height="131.721" stroke="#D9DBE9"/>
<rect x="1.5" y="394.139" width="140.474" height="131.721" stroke="#D9DBE9"/>
<rect x="421.366" y="525.5" width="140.474" height="131.721" stroke="#D9DBE9"/>
<rect x="561.231" y="525.5" width="140.474" height="131.721" stroke="#D9DBE9"/>
<rect x="700.831" y="525.353" width="140.474" height="131.721" stroke="#D9DBE9"/>
<rect x="840.696" y="525.353" width="140.474" height="131.721" stroke="#D9DBE9"/>
<rect x="980.563" y="525.353" width="140.474" height="131.721" stroke="#D9DBE9"/>
<rect x="1120.43" y="525.353" width="140.474" height="131.721" stroke="#D9DBE9"/>
<rect x="1260.29" y="525.353" width="140.474" height="131.721" stroke="#D9DBE9"/>
<rect x="1400.16" y="525.353" width="140.474" height="131.721" stroke="#D9DBE9"/>
<rect x="1540.03" y="525.353" width="140.474" height="131.721" stroke="#D9DBE9"/>
<rect x="281.5" y="525.5" width="140.474" height="131.721" stroke="#D9DBE9"/>
<rect x="140.366" y="524.353" width="140.474" height="131.721" stroke="#D9DBE9"/>
<rect x="0.5" y="524.353" width="140.474" height="131.721" stroke="#D9DBE9"/>
<rect x="421.098" y="656.565" width="140.474" height="131.721" stroke="#D9DBE9"/>
<rect x="560.964" y="656.565" width="140.474" height="131.721" stroke="#D9DBE9"/>
<rect x="700.831" y="656.565" width="140.474" height="131.721" stroke="#D9DBE9"/>
<rect x="840.696" y="656.565" width="140.474" height="131.721" stroke="#D9DBE9"/>
<rect x="980.563" y="656.565" width="140.474" height="131.721" stroke="#D9DBE9"/>
<rect x="1120.43" y="656.565" width="140.474" height="131.721" stroke="#D9DBE9"/>
<rect x="1260.29" y="656.565" width="140.474" height="131.721" stroke="#D9DBE9"/>
<rect x="1400.16" y="656.565" width="140.474" height="131.721" stroke="#D9DBE9"/>
<rect x="1540.03" y="656.565" width="140.474" height="131.721" stroke="#D9DBE9"/>
<rect x="281.232" y="656.565" width="140.474" height="131.721" stroke="#D9DBE9"/>
<rect x="141.366" y="656.565" width="140.474" height="131.721" stroke="#D9DBE9"/>
<rect x="0.5" y="656.565" width="140.474" height="131.721" stroke="#D9DBE9"/>
<rect x="421.098" y="788.405" width="140.474" height="131.721" stroke="#D9DBE9"/>
<rect x="560.964" y="788.405" width="140.474" height="131.721" stroke="#D9DBE9"/>
<rect x="700.831" y="788.405" width="140.474" height="131.721" stroke="#D9DBE9"/>
<rect x="840.696" y="788.405" width="140.474" height="131.721" stroke="#D9DBE9"/>
<rect x="980.563" y="788.405" width="140.474" height="131.721" stroke="#D9DBE9"/>
<rect x="1120.43" y="788.405" width="140.474" height="131.721" stroke="#D9DBE9"/>
<rect x="1260.29" y="788.405" width="140.474" height="131.721" stroke="#D9DBE9"/>
<rect x="1400.16" y="788.405" width="140.474" height="131.721" stroke="#D9DBE9"/>
<rect x="1540.03" y="788.405" width="140.474" height="131.721" stroke="#D9DBE9"/>
<rect x="281.232" y="788.405" width="140.474" height="131.721" stroke="#D9DBE9"/>
<rect x="141.366" y="788.405" width="140.474" height="131.721" stroke="#D9DBE9"/>
<rect x="0.5" y="788.405" width="140.474" height="131.721" stroke="#D9DBE9"/>
</g>
</svg>
