<svg width="140" height="38" viewBox="0 0 140 38" fill="none" xmlns="http://www.w3.org/2000/svg">
<path d="M10.3104 29.3027C8.31305 29.3027 6.54619 28.8482 5.00979 27.9392C3.4734 27.0173 2.26988 25.7562 1.39926 24.1558C0.528635 22.5554 0.0933221 20.7501 0.0933221 18.74C0.0933221 16.7171 0.528635 14.9182 1.39926 13.3434C2.26988 11.7686 3.4734 10.5331 5.00979 9.63684C6.54619 8.74061 8.31305 8.29249 10.3104 8.29249C12.3077 8.29249 14.0745 8.74061 15.6109 9.63684C17.1473 10.5331 18.3508 11.7686 19.2215 13.3434C20.0921 14.9182 20.5274 16.7171 20.5274 18.74C20.5274 20.7501 20.0921 22.5554 19.2215 24.1558C18.3508 25.7562 17.1473 27.0173 15.6109 27.9392C14.0745 28.8482 12.3077 29.3027 10.3104 29.3027ZM10.3104 27.1326C11.834 27.1326 13.1847 26.7741 14.3626 26.0571C15.5405 25.3401 16.4624 24.3478 17.1281 23.0803C17.7939 21.8128 18.1268 20.366 18.1268 18.74C18.1268 17.1012 17.7939 15.6608 17.1281 14.4189C16.4624 13.177 15.5405 12.2103 14.3626 11.5189C13.1847 10.8147 11.834 10.4627 10.3104 10.4627C8.78677 10.4627 7.43602 10.8147 6.25812 11.5189C5.08021 12.2103 4.15837 13.177 3.4926 14.4189C2.82683 15.6608 2.49394 17.1012 2.49394 18.74C2.49394 20.366 2.82683 21.8128 3.4926 23.0803C4.15837 24.3478 5.08021 25.3401 6.25812 26.0571C7.43602 26.7741 8.78677 27.1326 10.3104 27.1326ZM23.2471 37.3496V8.56136H25.6285V11.6726C26.4351 10.6227 27.453 9.79688 28.6821 9.19512C29.924 8.58057 31.2491 8.27329 32.6575 8.27329C34.3091 8.27329 35.8071 8.68299 37.1515 9.5024C38.4958 10.309 39.5649 11.4933 40.3587 13.0553C41.1653 14.6173 41.5686 16.5186 41.5686 18.7592C41.5686 21.0254 41.1717 22.9459 40.3779 24.5207C39.5841 26.0955 38.515 27.2926 37.1707 28.112C35.8263 28.9186 34.3219 29.3219 32.6575 29.3219C31.2491 29.3219 29.924 29.0146 28.6821 28.4001C27.453 27.7727 26.4351 26.9277 25.6285 25.865V37.3496H23.2471ZM25.6285 20.6989C25.6285 21.864 25.9358 22.9331 26.5503 23.9061C27.1777 24.8664 28.0035 25.6346 29.0278 26.2107C30.052 26.7869 31.1595 27.0749 32.3502 27.0749C34.3219 27.0749 35.9415 26.3772 37.2091 24.9816C38.4894 23.5732 39.1296 21.4991 39.1296 18.7592C39.1296 16.0065 38.4894 13.9323 37.2091 12.5368C35.9415 11.1412 34.3219 10.4434 32.3502 10.4434C31.1595 10.4434 30.052 10.7315 29.0278 11.3077C28.0163 11.8838 27.1969 12.652 26.5695 13.6123C25.9422 14.5725 25.6285 15.6352 25.6285 16.8003V20.5453V20.6989ZM63.0035 22.5618C62.9267 23.5604 62.5234 24.5847 61.7936 25.6346C61.0638 26.6716 60.0075 27.5487 58.6248 28.2657C57.2548 28.9826 55.5584 29.3411 53.5355 29.3411C51.5637 29.3411 49.8097 28.893 48.2733 27.9968C46.7497 27.1006 45.5462 25.865 44.6628 24.2902C43.7921 22.7026 43.3568 20.8781 43.3568 18.8168C43.3568 16.7555 43.7985 14.931 44.682 13.3434C45.5654 11.7558 46.7753 10.5139 48.3117 9.61763C49.8481 8.7214 51.5958 8.27329 53.5547 8.27329C55.552 8.27329 57.2804 8.7278 58.74 9.63684C60.1996 10.5459 61.3263 11.7814 62.1201 13.3434C62.9139 14.8926 63.3108 16.6338 63.3108 18.5671C63.3108 18.7208 63.3044 18.932 63.2916 19.2009C63.2916 19.457 63.2852 19.6426 63.2724 19.7579H45.719C45.9111 21.9984 46.7177 23.7909 48.1389 25.1352C49.56 26.4796 51.3845 27.1518 53.6123 27.1518C55.1743 27.1518 56.461 26.9021 57.4725 26.4028C58.4839 25.9034 59.2457 25.2953 59.7579 24.5783C60.27 23.8613 60.5645 23.1891 60.6413 22.5618H63.0035ZM53.5931 10.4242C52.1591 10.4242 50.8788 10.7251 49.7521 11.3269C48.6254 11.9286 47.71 12.7736 47.0058 13.8619C46.3144 14.9374 45.8919 16.1921 45.7382 17.6261H60.7757C60.7373 16.3458 60.43 15.1615 59.8539 14.0732C59.2905 12.9721 58.4775 12.0887 57.4149 11.4229C56.365 10.7571 55.0911 10.4242 53.5931 10.4242ZM66.0229 28.957V8.56136H68.4044V11.9414C69.1854 10.8147 70.2032 9.92491 71.458 9.27194C72.7127 8.60617 74.0442 8.27329 75.4526 8.27329C77.77 8.27329 79.6137 8.91985 80.9836 10.213C82.3664 11.4933 83.0577 13.305 83.0577 15.648V28.957H80.6955V16.2241C80.6955 14.5213 80.2346 13.1449 79.3128 12.0951C78.4037 11.0452 76.9762 10.5203 75.0301 10.5203C73.8778 10.5203 72.7959 10.8083 71.7844 11.3845C70.773 11.9478 69.9536 12.716 69.3262 13.6891C68.7116 14.6621 68.4044 15.7568 68.4044 16.9731V28.957H66.0229Z" fill="#222222"/>
<path fill-rule="evenodd" clip-rule="evenodd" d="M131.185 22.7545C131.424 24.2082 133.321 24.9876 134.575 23.4728C135.515 22.3365 137.198 22.1774 138.334 23.1175C139.47 24.0575 139.63 25.7407 138.689 26.877C134.289 32.1957 126.126 29.3361 125.848 22.6288C125.837 22.5337 125.832 22.4398 125.832 22.3476L125.844 8.4679C125.844 7.08604 127.04 5.96582 128.514 5.96582C129.989 5.96582 131.185 7.08605 131.185 8.46791L131.185 22.7545Z" fill="url(#paint0_linear_2471_9751)"/>
<path fill-rule="evenodd" clip-rule="evenodd" d="M101.288 7.97184C102.565 8.70921 103.003 10.3423 102.265 11.6195L92.851 27.9258C92.1137 29.2029 90.4806 29.6405 89.2034 28.9031C87.9262 28.1658 87.4887 26.5327 88.226 25.2555L97.6405 8.94922C98.3778 7.67206 100.011 7.23447 101.288 7.97184Z" fill="url(#paint1_linear_2471_9751)"/>
<path fill-rule="evenodd" clip-rule="evenodd" d="M115.735 29.4004C114.26 29.4004 113.065 28.2049 113.065 26.7301L113.065 12.5149C113.065 11.0402 114.26 9.84469 115.735 9.84469C117.21 9.84469 118.405 11.0402 118.405 12.5149L118.405 26.7301C118.405 28.2049 117.21 29.4004 115.735 29.4004Z" fill="url(#paint2_linear_2471_9751)"/>
<path fill-rule="evenodd" clip-rule="evenodd" d="M117.975 18.767L116.993 18.787L113.062 18.7606C113.098 17.7576 113.699 15.8914 114.154 15.018C114.63 14.1051 115.307 13.1655 116.163 12.3593C117.885 10.7377 120.619 9.45277 123.798 10.6446C125.064 11.1192 125.705 12.53 125.231 13.7958C124.756 15.0616 123.345 15.703 122.079 15.2285C121.187 14.894 120.359 15.1322 119.519 15.9233C119.094 16.3235 118.741 16.6639 118.496 17.2808C118.376 17.8518 118.403 18.7603 118.403 18.7603L117.975 18.767Z" fill="url(#paint3_linear_2471_9751)"/>
<path fill-rule="evenodd" clip-rule="evenodd" d="M125.832 13.0779L125.832 10.8164L134.619 10.8165C135.62 10.8165 136.96 11.7854 136.96 13.1372C137.079 14.4341 136.017 15.712 134.619 15.712H125.844L125.832 13.0779Z" fill="url(#paint4_linear_2471_9751)"/>
<g style="mix-blend-mode:overlay" opacity="0.2">
<path d="M125.844 15.7344H131.165L131.165 18.0493H125.844V15.7344Z" fill="url(#paint5_linear_2471_9751)"/>
</g>
<path fill-rule="evenodd" clip-rule="evenodd" d="M97.4786 9.28706C97.6936 8.75192 98.0826 8.28218 98.6208 7.97147C99.898 7.2341 101.531 7.67169 102.268 8.94885L111.683 25.2551C112.42 26.5323 111.983 28.1654 110.705 28.9028C109.428 29.6401 107.795 29.2025 107.058 27.9254L99.921 15.564L99.9598 15.6637C98.5437 12.8502 96.3575 12.5504 95.4414 12.7521L97.4677 9.25893L97.4786 9.28706Z" fill="url(#paint6_linear_2471_9751)"/>
<defs>
<linearGradient id="paint0_linear_2471_9751" x1="125.832" y1="5.96582" x2="144.197" y2="10.7142" gradientUnits="userSpaceOnUse">
<stop stop-color="#9D0AFC"/>
<stop offset="1" stop-color="#0359FF"/>
</linearGradient>
<linearGradient id="paint1_linear_2471_9751" x1="99.2649" y1="10.7" x2="103.585" y2="15.8913" gradientUnits="userSpaceOnUse">
<stop stop-color="#00DFBA"/>
<stop offset="1" stop-color="#048AFE"/>
</linearGradient>
<linearGradient id="paint2_linear_2471_9751" x1="115.814" y1="10.5589" x2="115.814" y2="31.0734" gradientUnits="userSpaceOnUse">
<stop stop-color="#5900EB"/>
<stop offset="1" stop-color="#E367EE"/>
</linearGradient>
<linearGradient id="paint3_linear_2471_9751" x1="115.389" y1="18.8124" x2="126.269" y2="11.522" gradientUnits="userSpaceOnUse">
<stop stop-color="#9129EC"/>
<stop offset="1" stop-color="#9F03FF"/>
</linearGradient>
<linearGradient id="paint4_linear_2471_9751" x1="131.673" y1="12.077" x2="137.877" y2="18.5678" gradientUnits="userSpaceOnUse">
<stop stop-color="#930FFC"/>
<stop offset="0.865143" stop-color="#004BFB"/>
</linearGradient>
<linearGradient id="paint5_linear_2471_9751" x1="128.504" y1="15.7769" x2="128.504" y2="17.7865" gradientUnits="userSpaceOnUse">
<stop/>
<stop offset="1" stop-opacity="0"/>
</linearGradient>
<linearGradient id="paint6_linear_2471_9751" x1="94.8341" y1="7.81207" x2="120.867" y2="14.3281" gradientUnits="userSpaceOnUse">
<stop stop-color="#0056FE"/>
<stop offset="0.815625" stop-color="#D159ED"/>
</linearGradient>
</defs>
</svg>
