<svg width="24" height="25" viewBox="0 0 24 25" fill="none" xmlns="http://www.w3.org/2000/svg">
<path d="M12.3983 3.54102C13.377 3.52588 14.3501 3.53485 15.3221 3.52588C15.381 4.67061 15.7926 5.83666 16.6306 6.64599C17.4668 7.47552 18.6497 7.85523 19.8006 7.98367V10.995C18.7221 10.9596 17.6385 10.7353 16.6598 10.2709C16.2335 10.078 15.8364 9.82949 15.4477 9.57541C15.4427 11.7606 15.4567 13.9429 15.4337 16.1191C15.3754 17.1645 15.0304 18.2049 14.4224 19.0664C13.4443 20.5006 11.7465 21.4356 10.0028 21.4647C8.93322 21.5259 7.86476 21.2342 6.95335 20.6969C5.44293 19.8062 4.38008 18.1758 4.22528 16.4259C4.20578 16.0553 4.20279 15.684 4.21631 15.3131C4.35092 13.8902 5.05481 12.5289 6.14738 11.603C7.38578 10.5244 9.12055 10.0106 10.7448 10.3146C10.76 11.4224 10.7157 12.5289 10.7157 13.6367C9.97363 13.3966 9.10653 13.4639 8.45816 13.9143C7.9838 14.2268 7.62533 14.6866 7.43794 15.2228C7.28314 15.602 7.32745 16.0232 7.33642 16.4259C7.51422 17.653 8.69429 18.6845 9.954 18.5729C10.7891 18.5639 11.5895 18.0793 12.0247 17.3698C12.1655 17.1213 12.3231 16.8673 12.3315 16.5751C12.405 15.2374 12.3758 13.9053 12.3848 12.5676C12.391 9.55298 12.3758 6.54672 12.3988 3.54158L12.3983 3.54102Z" fill="#333333"/>
</svg>
