<svg width="24" height="25" viewBox="0 0 24 25" fill="none" xmlns="http://www.w3.org/2000/svg">
<path d="M23.0185 5.8244C22.2294 6.17404 21.3818 6.41028 20.4907 6.51706C21.4102 5.96689 22.098 5.10099 22.426 4.08093C21.5622 4.59404 20.6167 4.95521 19.6308 5.14875C18.9678 4.44084 18.0896 3.97162 17.1326 3.81395C16.1756 3.65628 15.1933 3.81898 14.3382 4.27678C13.4832 4.73458 12.8032 5.46187 12.4038 6.34574C12.0044 7.22961 11.908 8.22061 12.1296 9.16487C10.3792 9.07698 8.66689 8.62203 7.10372 7.82954C5.54054 7.03704 4.16147 5.92472 3.05601 4.56476C2.67802 5.21678 2.46068 5.97276 2.46068 6.77787C2.46026 7.50266 2.63874 8.21635 2.9803 8.85561C3.32185 9.49487 3.81592 10.0399 4.41866 10.4425C3.71964 10.4202 3.03604 10.2313 2.42477 9.89155V9.94825C2.4247 10.9648 2.77633 11.9501 3.42 12.7368C4.06366 13.5236 4.95972 14.0635 5.95612 14.2649C5.30767 14.4404 4.62781 14.4662 3.9679 14.3405C4.24903 15.2151 4.79664 15.98 5.53407 16.528C6.27149 17.076 7.16182 17.3797 8.08041 17.3965C6.52106 18.6206 4.59526 19.2846 2.61282 19.2817C2.26165 19.2818 1.91078 19.2613 1.56201 19.2203C3.5743 20.5141 5.91675 21.2008 8.3091 21.1981C16.4075 21.1981 20.8347 14.4907 20.8347 8.67348C20.8347 8.48449 20.8299 8.29361 20.8214 8.10461C21.6826 7.48185 22.4259 6.71068 23.0166 5.82723L23.0185 5.8244V5.8244Z" fill="#333333"/>
</svg>
