<svg width="24" height="25" viewBox="0 0 24 25" fill="none" xmlns="http://www.w3.org/2000/svg">
<path d="M21.7624 7.83721C21.647 7.42569 21.4223 7.05313 21.1121 6.75912C20.7932 6.45607 20.4023 6.23929 19.9763 6.12924C18.3821 5.70904 11.9951 5.70904 11.9951 5.70904C9.3324 5.67875 6.67037 5.81199 4.02402 6.10802C3.59804 6.2262 3.20787 6.44782 2.8882 6.75318C2.57412 7.05538 2.34661 7.42804 2.22777 7.83636C1.94228 9.37433 1.80357 10.9359 1.81351 12.5002C1.80333 14.063 1.94169 15.6241 2.22777 17.1639C2.34407 17.5706 2.57072 17.9415 2.88566 18.2412C3.2006 18.5408 3.59278 18.7573 4.02402 18.8719C5.63945 19.2913 11.9951 19.2913 11.9951 19.2913C14.6612 19.3216 17.3266 19.1884 19.9763 18.8923C20.4023 18.7822 20.7932 18.5655 21.1121 18.2624C21.4262 17.9627 21.6495 17.5901 21.7615 17.1843C22.0545 15.6469 22.1969 14.0847 22.1868 12.5197C22.2089 10.948 22.0666 9.37842 21.7624 7.83636V7.83721ZM9.96454 15.4067V9.59441L15.2786 12.501L9.96454 15.4067Z" fill="#333333"/>
</svg>
